<?xml version="1.0" encoding="utf-8"?>
<svg id="master-artboard" viewBox="0 0 1096 780" version="1.1" xmlns="http://www.w3.org/2000/svg" x="0px" y="0px" style="enable-background:new 0 0 1096 780;" width="1096px" height="780px"><rect id="ee-background" x="0" y="0" width="1096" height="780" style="fill: white; fill-opacity: 0; pointer-events: none;"/>


<path d="M 720.903 555.747986 A 173.251999 173.251999 0 0 1 547.651001 728.999985 A 173.251999 173.251999 0 0 1 374.399002 555.747986 A 173.251999 173.251999 0 0 1 547.651001 382.495987 A 173.251999 173.251999 0 0 1 720.903 555.747986 Z" style="fill: rgb(173, 144, 85);" transform="matrix(1.600745916366577, 0, 0, 1.600745916366577, -353.0437157733368, -520.1995637862035)"/><path d="M 710.229004 555.747986 A 162.578003 162.578003 0 0 1 547.651001 718.325989 A 162.578003 162.578003 0 0 1 385.072998 555.747986 A 162.578003 162.578003 0 0 1 547.651001 393.169983 A 162.578003 162.578003 0 0 1 710.229004 555.747986 Z" style="fill: rgb(96, 33, 130);" transform="matrix(1.600745916366577, 0, 0, 1.600745916366577, -353.0437157733368, -520.1995637862035)"/><path d="M 668.716003 555.747986 A 121.065002 121.065002 0 0 1 547.651001 676.812988 A 121.065002 121.065002 0 0 1 426.585999 555.747986 A 121.065002 121.065002 0 0 1 547.651001 434.682983 A 121.065002 121.065002 0 0 1 668.716003 555.747986 Z" style="fill:#D2B370;" transform="matrix(1.600745916366577, 0, 0, 1.600745916366577, -353.0437157733368, -520.1995637862035)"/><path style="fill:#AD9055;" d="M543.335,669.117c-2.517-8.367-6.438-16.293-11.719-23.264&#10;&#9;&#9;&#9;c-4.917-6.492-10.953-13.024-18.791-15.87c-6.698-2.432-15.192-1.192-19.742,4.688c-4.267,5.513-3.145,13.93,2.175,18.373&#10;&#9;&#9;&#9;c6.172,5.154,15.87,2.944,19.908-3.76c1.508-2.503-2.407-4.782-3.91-2.286c-2.71,4.499-9.475,6.023-13.451,2.26&#10;&#9;&#9;&#9;c-3.93-3.719-3.751-10.269,0.595-13.546c4.924-3.713,11.552-2.684,16.549,0.251c5.577,3.275,10.161,8.505,13.89,13.714&#10;&#9;&#9;&#9;c4.501,6.285,7.903,13.245,10.129,20.645C539.805,673.105,544.178,671.919,543.335,669.117z" transform="matrix(1.600745916366577, 0, 0, 1.600745916366577, -353.0437157733368, -520.1995637862035)"/><path style="fill:#AD9055;" d="M530.436,627.526c-5.828,0-5.838,9.057,0,9.057C536.264,636.584,536.273,627.526,530.436,627.526z" transform="matrix(1.600745916366577, 0, 0, 1.600745916366577, -353.0437157733368, -520.1995637862035)"/><path style="fill:#AD9055;" d="M516.85,614.393c-5.828,0-5.838,9.057,0,9.057C522.678,623.451,522.688,614.393,516.85,614.393z" transform="matrix(1.600745916366577, 0, 0, 1.600745916366577, -353.0437157733368, -520.1995637862035)"/><path style="fill:#AD9055;" d="M496.471,614.393c-5.828,0-5.838,9.057,0,9.057C502.299,623.451,502.309,614.393,496.471,614.393z" transform="matrix(1.600745916366577, 0, 0, 1.600745916366577, -353.0437157733368, -520.1995637862035)"/><path style="fill:#AD9055;" d="M483.338,625.715c-5.828,0-5.838,9.057,0,9.057C489.166,634.772,489.176,625.715,483.338,625.715z" transform="matrix(1.600745916366577, 0, 0, 1.600745916366577, -353.0437157733368, -520.1995637862035)"/><path style="fill:#AD9055;" d="M482.885,642.924c-5.828,0-5.838,9.057,0,9.057C488.713,651.981,488.723,642.924,482.885,642.924z" transform="matrix(1.600745916366577, 0, 0, 1.600745916366577, -353.0437157733368, -520.1995637862035)"/><path style="fill:#AD9055;" d="M520.473,653.793c-5.828,0-5.838,9.057,0,9.057C526.301,662.85,526.31,653.793,520.473,653.793z" transform="matrix(1.600745916366577, 0, 0, 1.600745916366577, -353.0437157733368, -520.1995637862035)"/><path style="fill:#AD9055;" d="M551.968,669.117c2.517-8.367,6.438-16.293,11.719-23.264c4.917-6.492,10.953-13.024,18.791-15.87&#10;&#9;&#9;&#9;c6.698-2.432,15.192-1.192,19.742,4.688c4.267,5.513,3.145,13.93-2.175,18.373c-6.172,5.154-15.87,2.944-19.908-3.76&#10;&#9;&#9;&#9;c-1.508-2.503,2.407-4.782,3.91-2.286c2.71,4.499,9.474,6.023,13.451,2.26c3.93-3.719,3.751-10.269-0.595-13.546&#10;&#9;&#9;&#9;c-4.924-3.713-11.552-2.684-16.549,0.251c-5.577,3.275-10.161,8.505-13.89,13.714c-4.501,6.285-7.903,13.245-10.129,20.645&#10;&#9;&#9;&#9;C555.498,673.105,551.125,671.919,551.968,669.117z" transform="matrix(1.600745916366577, 0, 0, 1.600745916366577, -353.0437157733368, -520.1995637862035)"/><path style="fill:#AD9055;" d="M564.867,627.526c5.828,0,5.838,9.057,0,9.057C559.039,636.584,559.029,627.526,564.867,627.526z" transform="matrix(1.600745916366577, 0, 0, 1.600745916366577, -353.0437157733368, -520.1995637862035)"/><path style="fill:#AD9055;" d="M578.453,614.393c5.828,0,5.838,9.057,0,9.057C572.625,623.451,572.615,614.393,578.453,614.393z" transform="matrix(1.600745916366577, 0, 0, 1.600745916366577, -353.0437157733368, -520.1995637862035)"/><path style="fill:#AD9055;" d="M598.832,614.393c5.828,0,5.838,9.057,0,9.057C593.004,623.451,592.994,614.393,598.832,614.393z" transform="matrix(1.600745916366577, 0, 0, 1.600745916366577, -353.0437157733368, -520.1995637862035)"/><path style="fill:#AD9055;" d="M611.965,625.715c5.828,0,5.838,9.057,0,9.057C606.137,634.772,606.127,625.715,611.965,625.715z" transform="matrix(1.600745916366577, 0, 0, 1.600745916366577, -353.0437157733368, -520.1995637862035)"/><path style="fill:#AD9055;" d="M612.418,642.924c5.828,0,5.838,9.057,0,9.057C606.59,651.981,606.58,642.924,612.418,642.924z" transform="matrix(1.600745916366577, 0, 0, 1.600745916366577, -353.0437157733368, -520.1995637862035)"/><path style="fill:#AD9055;" d="M574.83,653.793c5.828,0,5.838,9.057,0,9.057C569.002,662.85,568.992,653.793,574.83,653.793z" transform="matrix(1.600745916366577, 0, 0, 1.600745916366577, -353.0437157733368, -520.1995637862035)"/><path style="fill: rgb(173, 144, 85);" d="M544.032,674.246c-2.11,7.017-5.399,13.663-9.827,19.509c-4.124,5.444-9.185,10.922-15.758,13.309&#10;&#9;&#9;&#9;c-5.617,2.039-12.739,0.999-16.555-3.931c-3.578-4.623-2.638-11.681,1.824-15.407c5.176-4.322,13.309-2.469,16.695,3.153&#10;&#9;&#9;&#9;c1.264,2.099-2.018,4.01-3.279,1.917c-2.272-3.773-7.945-5.051-11.28-1.895c-3.295,3.118-3.145,8.611,0.499,11.359&#10;&#9;&#9;&#9;c4.129,3.114,9.687,2.25,13.878-0.21c4.677-2.746,8.521-7.133,11.648-11.5c3.774-5.271,6.627-11.107,8.494-17.312&#10;&#9;&#9;&#9;C541.072,670.902,544.738,671.897,544.032,674.246z" transform="matrix(1.600745916366577, 0, 0, 1.600745916366577, -353.0437157733368, -520.1995637862035)"/><path style="fill: rgb(173, 144, 85);" d="M533.215,709.124c-4.887,0-4.895-7.595,0-7.595C538.102,701.529,538.11,709.124,533.215,709.124z" transform="matrix(1.600745916366577, 0, 0, 1.600745916366577, -353.0437157733368, -520.1995637862035)"/><path style="fill: rgb(173, 144, 85);" d="M521.822,720.137c-4.887,0-4.895-7.595,0-7.595C526.709,712.542,526.717,720.137,521.822,720.137z" transform="matrix(1.600745916366577, 0, 0, 1.600745916366577, -353.0437157733368, -520.1995637862035)"/><path style="fill: rgb(173, 144, 85);" d="M504.733,720.137c-4.887,0-4.895-7.595,0-7.595C509.62,712.542,509.628,720.137,504.733,720.137z" transform="matrix(1.600745916366577, 0, 0, 1.600745916366577, -353.0437157733368, -520.1995637862035)"/><path style="fill: rgb(173, 144, 85);" d="M493.72,710.643c-4.887,0-4.895-7.595,0-7.595C498.607,703.048,498.615,710.643,493.72,710.643z" transform="matrix(1.600745916366577, 0, 0, 1.600745916366577, -353.0437157733368, -520.1995637862035)"/><path style="fill: rgb(173, 144, 85);" d="M493.34,696.212c-4.887,0-4.895-7.595,0-7.595C498.227,688.617,498.235,696.212,493.34,696.212z" transform="matrix(1.600745916366577, 0, 0, 1.600745916366577, -353.0437157733368, -520.1995637862035)"/><path style="fill: rgb(173, 144, 85);" d="M524.86,687.098c-4.887,0-4.895-7.595,0-7.595C529.747,679.502,529.755,687.098,524.86,687.098z" transform="matrix(1.600745916366577, 0, 0, 1.600745916366577, -353.0437157733368, -520.1995637862035)"/><path style="fill: rgb(173, 144, 85);" d="M551.271,674.246c2.11,7.017,5.399,13.663,9.827,19.509c4.124,5.444,9.185,10.922,15.758,13.309&#10;&#9;&#9;&#9;c5.617,2.039,12.739,0.999,16.555-3.931c3.578-4.623,2.638-11.681-1.824-15.407c-5.176-4.322-13.309-2.469-16.695,3.153&#10;&#9;&#9;&#9;c-1.264,2.099,2.018,4.01,3.279,1.917c2.272-3.773,7.945-5.051,11.28-1.895c3.295,3.118,3.145,8.611-0.499,11.359&#10;&#9;&#9;&#9;c-4.129,3.114-9.687,2.25-13.878-0.21c-4.677-2.746-8.521-7.133-11.648-11.5c-3.774-5.271-6.627-11.107-8.494-17.312&#10;&#9;&#9;&#9;C554.231,670.902,550.565,671.897,551.271,674.246z" transform="matrix(1.600745916366577, 0, 0, 1.600745916366577, -353.0437157733368, -520.1995637862035)"/><path style="fill: rgb(173, 144, 85);" d="M562.088,709.124c4.887,0,4.895-7.595,0-7.595C557.201,701.529,557.193,709.124,562.088,709.124z" transform="matrix(1.600745916366577, 0, 0, 1.600745916366577, -353.0437157733368, -520.1995637862035)"/><path style="fill: rgb(173, 144, 85);" d="M573.481,720.137c4.887,0,4.895-7.595,0-7.595C568.594,712.542,568.586,720.137,573.481,720.137z" transform="matrix(1.600745916366577, 0, 0, 1.600745916366577, -353.0437157733368, -520.1995637862035)"/><path style="fill: rgb(173, 144, 85);" d="M590.57,720.137c4.887,0,4.895-7.595,0-7.595C585.683,712.542,585.675,720.137,590.57,720.137z" transform="matrix(1.600745916366577, 0, 0, 1.600745916366577, -353.0437157733368, -520.1995637862035)"/><path style="fill: rgb(173, 144, 85);" d="M601.583,710.643c4.887,0,4.895-7.595,0-7.595C596.696,703.048,596.688,710.643,601.583,710.643z" transform="matrix(1.600745916366577, 0, 0, 1.600745916366577, -353.0437157733368, -520.1995637862035)"/><path style="fill: rgb(173, 144, 85);" d="M601.963,696.212c4.887,0,4.895-7.595,0-7.595C597.076,688.617,597.068,696.212,601.963,696.212z" transform="matrix(1.600745916366577, 0, 0, 1.600745916366577, -353.0437157733368, -520.1995637862035)"/><path style="fill: rgb(173, 144, 85);" d="M570.443,687.098c4.887,0,4.895-7.595,0-7.595C565.556,679.502,565.548,687.098,570.443,687.098z" transform="matrix(1.600745916366577, 0, 0, 1.600745916366577, -353.0437157733368, -520.1995637862035)"/><g transform="matrix(1.600745916366577, 0, 0, 1.600745916366577, -353.0437157733368, -520.1995637862035)">
			<path style="fill:#AD9055;" d="M532.702,459.015c-5.642-8.48-14.357-13.677-24.412-14.952c-2.43-0.308-6.52,3.533-4.529,4.529&#10;&#9;&#9;&#9;&#9;c8.714,4.356,17.428,9.445,21.12,14.995C528.095,468.417,535.943,463.887,532.702,459.015z"/>
			<path style="fill:#AD9055;" d="M546.326,462.172c-2.878-9.771-9.664-17.315-18.891-21.51c-2.23-1.014-7.274,1.444-5.666,2.985&#10;&#9;&#9;&#9;&#9;c7.033,6.741,13.85,14.181,15.733,20.576C539.142,469.788,547.979,467.784,546.326,462.172z"/>
		</g><path style="fill:#AD9055;" d="M566.257,459.015c5.642-8.48,14.357-13.677,24.412-14.952c2.43-0.308,6.52,3.533,4.529,4.529&#10;&#9;&#9;&#9;&#9;c-8.714,4.356-17.428,9.445-21.12,14.995C570.865,468.417,563.017,463.887,566.257,459.015z" transform="matrix(1.600745916366577, 0, 0, 1.600745916366577, -353.0437157733368, -520.1995637862035)"/><path style="fill:#AD9055;" d="M552.633,462.172c2.878-9.771,9.664-17.315,18.891-21.51c2.23-1.014,7.274,1.444,5.666,2.985&#10;&#9;&#9;&#9;&#9;c-7.034,6.741-13.85,14.181-15.733,20.576C559.818,469.788,550.98,467.784,552.633,462.172z" transform="matrix(1.600745916366577, 0, 0, 1.600745916366577, -353.0437157733368, -520.1995637862035)"/><path d="M 556.5230102539062 679.2080078125 L 538.780029296875 679.2080078125 L 534.2509765625 723.2130126953125 L 561.052001953125 723.2130126953125 Z" style="fill: none; stroke: rgb(173, 144, 85); stroke-width: 5.8872; stroke-miterlimit: 10;" transform="matrix(1.600745916366577, 0, 0, 1.600745916366577, -353.0437157733368, -520.1995637862035)"/><path d="M 561.0339965820312 432.2879943847656 L 534.2680053710938 432.2879943847656 L 527.43701171875 388.2829895019531 L 567.8660278320312 388.2829895019531 Z" style="fill: none; stroke: rgb(173, 144, 85); stroke-width: 6.7929; stroke-miterlimit: 10;" transform="matrix(1.600745916366577, 0, 0, 1.600745916366577, -353.0437157733368, -520.1995637862035)"/><path d="M 618.031982421875 657.5689697265625 L 602.7509765625 666.5859985351562 L 621.2130126953125 706.7860107421875 L 644.2949829101562 693.1669921875 Z" style="fill: none; stroke: rgb(173, 144, 85); stroke-width: 5.8872; stroke-miterlimit: 10;" transform="matrix(0.6862687468528746, -1.2043989896774292, 1.2043989896774292, 0.6862687468528746, -488.27577143739927, 645.2159635575465)"/><path style="fill:#AD9055;" d="M547.651,442.835c30.16,0,58.515,11.745,79.842,33.072c21.327,21.326,33.072,49.681,33.072,79.842&#10;&#9;&#9;&#9;c0,30.16-11.745,58.515-33.072,79.842c-21.326,21.327-49.681,33.072-79.842,33.072c-30.16,0-58.515-11.745-79.842-33.072&#10;&#9;&#9;&#9;c-21.327-21.326-33.072-49.681-33.072-79.842c0-30.16,11.745-58.515,33.072-79.842&#10;&#9;&#9;&#9;C489.136,454.58,517.491,442.835,547.651,442.835 M547.651,434.683c-66.862,0-121.065,54.203-121.065,121.065&#10;&#9;&#9;&#9;s54.203,121.065,121.065,121.065s121.065-54.203,121.065-121.065S614.514,434.683,547.651,434.683L547.651,434.683z" transform="matrix(1.600745916366577, 0, 0, 1.600745916366577, -353.0437157733368, -520.1995637862035)"/>




<g transform="matrix(-2.7872605323791504, -0.018158305436372757, 0.018158305436372757, -2.7872605323791504, 804.4663855450226, 1439.6610929520778)"><g id="Layer_2_18_" transform="matrix(1, 0, 0, 1, 0, 0)">
	<g id="Layer_1-2_18_">
		<path class="st0" d="M103,336.5L53,424h100L103,336.5" style="fill: rgb(96, 33, 130); fill-opacity: 0.9;"/>
	</g>
</g></g><g transform="matrix(-2.154144763946533, -0.010846213437616827, 0.010846213437616827, -2.154144763946533, 742.523039901587, 1166.4991455078127)"><g id="g-5" transform="matrix(1, 0, 0, 1, 0, 0)">
	<g id="g-6">
		<path class="st0" d="M103,336.5L53,424h100L103,336.5" style="fill: rgb(210, 179, 112);"/>
	</g>
</g></g></svg>